<svg xmlns="http://www.w3.org/2000/svg" xmlns:xlink="http://www.w3.org/1999/xlink" width="500" zoomAndPan="magnify" viewBox="0 0 375 374.999991" height="500" preserveAspectRatio="xMidYMid meet" version="1.0"><defs><g/><clipPath id="0b9e983dea"><path d="M 49.332031 54 L 325.332031 54 L 325.332031 330 L 49.332031 330 Z M 49.332031 54 " clip-rule="nonzero"/></clipPath><clipPath id="d6698d5af8"><path d="M 0 229.222656 L 375 229.222656 L 375 287.5625 L 0 287.5625 Z M 0 229.222656 " clip-rule="nonzero"/></clipPath><clipPath id="83dc13823d"><path d="M 135.726562 4.667969 L 239.273438 4.667969 L 239.273438 146 L 135.726562 146 Z M 135.726562 4.667969 " clip-rule="nonzero"/></clipPath></defs><g clip-path="url(#0b9e983dea)"><path fill="#222223" d="M 187.332031 330 C 111.261719 330 49.332031 268.070312 49.332031 192 C 49.332031 115.929688 111.261719 54 187.332031 54 C 263.402344 54 325.332031 115.929688 325.332031 192 C 325.332031 268.070312 263.402344 330 187.332031 330 Z M 187.332031 56.039062 C 112.351562 56.039062 51.371094 117.015625 51.371094 192 C 51.371094 266.980469 112.351562 327.960938 187.332031 327.960938 C 262.316406 327.960938 323.292969 266.980469 323.292969 192 C 323.292969 117.015625 262.316406 56.039062 187.332031 56.039062 Z M 187.332031 56.039062 " fill-opacity="1" fill-rule="nonzero"/></g><g clip-path="url(#d6698d5af8)"><path fill="#ffffff" d="M 0 229.222656 L 375 229.222656 L 375 287.816406 L 0 287.816406 Z M 0 229.222656 " fill-opacity="1" fill-rule="nonzero"/></g><g clip-path="url(#83dc13823d)"><path fill="#ffffff" d="M 135.726562 4.667969 L 239.4375 4.667969 L 239.4375 145.878906 L 135.726562 145.878906 Z M 135.726562 4.667969 " fill-opacity="1" fill-rule="nonzero"/></g><g fill="#000000" fill-opacity="1"><g transform="translate(130.570308, 168.749989)"><g><path d="M 14.875 8.890625 C 10.238281 8.890625 7.007812 7.65625 5.1875 5.1875 C 3.375 2.726562 2.46875 -0.90625 2.46875 -5.71875 C 2.46875 -12.175781 4.34375 -18.515625 8.09375 -24.734375 C 3.75 -27.484375 1.578125 -31.554688 1.578125 -36.953125 C 1.578125 -43.472656 4.453125 -49.253906 10.203125 -54.296875 C 16.660156 -59.984375 24.992188 -62.828125 35.203125 -62.828125 C 38.429688 -62.828125 41.273438 -62.632812 43.734375 -62.25 C 46.203125 -61.875 48.5625 -61.304688 50.8125 -60.546875 C 53.070312 -59.785156 55.492188 -58.816406 58.078125 -57.640625 C 60.660156 -56.460938 63.710938 -55.054688 67.234375 -53.421875 C 75.796875 -49.546875 82.070312 -47.609375 86.0625 -47.609375 C 88 -47.609375 89.671875 -48.0625 91.078125 -48.96875 C 92.484375 -49.882812 93.1875 -51.015625 93.1875 -52.359375 C 93.1875 -53.242188 92.804688 -54.035156 92.046875 -54.734375 C 91.640625 -55.316406 91.4375 -55.726562 91.4375 -55.96875 C 91.4375 -56.082031 91.492188 -56.140625 91.609375 -56.140625 C 92.078125 -56.140625 92.722656 -55.640625 93.546875 -54.640625 C 94.367188 -53.648438 94.78125 -52.566406 94.78125 -51.390625 C 94.78125 -50.097656 94.296875 -48.984375 93.328125 -48.046875 C 92.359375 -47.109375 91.125 -46.390625 89.625 -45.890625 C 88.132812 -45.390625 86.597656 -45.140625 85.015625 -45.140625 C 80.609375 -45.140625 74.125 -47.109375 65.5625 -51.046875 C 62.394531 -52.503906 59.664062 -53.742188 57.375 -54.765625 C 55.082031 -55.796875 52.96875 -56.648438 51.03125 -57.328125 C 49.101562 -58.003906 47.1875 -58.503906 45.28125 -58.828125 C 43.375 -59.148438 41.242188 -59.3125 38.890625 -59.3125 C 26.753906 -59.3125 17.191406 -55.378906 10.203125 -47.515625 C 9.441406 -46.691406 8.707031 -45.503906 8 -43.953125 C 7.300781 -42.398438 6.726562 -40.769531 6.28125 -39.0625 C 5.84375 -37.363281 5.625 -35.84375 5.625 -34.5 C 5.625 -31.09375 6.828125 -28.453125 9.234375 -26.578125 C 11.117188 -29.335938 13.304688 -31.816406 15.796875 -34.015625 C 18.285156 -36.210938 20.96875 -37.957031 23.84375 -39.25 C 26.71875 -40.539062 29.679688 -41.1875 32.734375 -41.1875 C 38.015625 -41.1875 40.65625 -39.132812 40.65625 -35.03125 C 40.65625 -30.09375 37.75 -24.722656 31.9375 -18.921875 C 26.1875 -13.171875 20.847656 -10.296875 15.921875 -10.296875 C 12.753906 -10.296875 11.171875 -11.644531 11.171875 -14.34375 C 11.171875 -15.28125 11.421875 -16.097656 11.921875 -16.796875 C 12.421875 -17.503906 13.023438 -17.769531 13.734375 -17.59375 C 13.734375 -17.300781 13.703125 -16.9375 13.640625 -16.5 C 13.578125 -16.0625 13.546875 -15.753906 13.546875 -15.578125 C 13.546875 -14.691406 14.894531 -14.25 17.59375 -14.25 C 21.582031 -14.25 25.867188 -16.363281 30.453125 -20.59375 C 32.679688 -22.707031 34.597656 -25.050781 36.203125 -27.625 C 37.816406 -30.207031 38.625 -32.613281 38.625 -34.84375 C 38.625 -37.488281 36.925781 -38.8125 33.53125 -38.8125 C 31.0625 -38.8125 28.582031 -38.132812 26.09375 -36.78125 C 23.601562 -35.4375 21.238281 -33.691406 19 -31.546875 C 16.769531 -29.410156 14.75 -27.140625 12.9375 -24.734375 C 13.226562 -24.609375 13.609375 -24.488281 14.078125 -24.375 C 14.546875 -24.257812 15.070312 -24.144531 15.65625 -24.03125 L 20.9375 -23.84375 C 23.519531 -23.726562 24.8125 -23.4375 24.8125 -22.96875 C 24.8125 -22.144531 23.640625 -21.734375 21.296875 -21.734375 C 20.242188 -21.734375 19.234375 -21.757812 18.265625 -21.8125 C 17.296875 -21.875 16.367188 -21.96875 15.484375 -22.09375 C 14.835938 -22.207031 14.207031 -22.335938 13.59375 -22.484375 C 12.976562 -22.628906 12.378906 -22.820312 11.796875 -23.0625 C 7.273438 -16.132812 5.015625 -9.765625 5.015625 -3.953125 C 5.015625 3.546875 7.921875 7.296875 13.734375 7.296875 C 20.296875 7.296875 27.128906 2.722656 34.234375 -6.421875 L 51.484375 -32.125 C 57.753906 -41.445312 63.351562 -46.253906 68.28125 -46.546875 L 71.625 -45.765625 C 72.6875 -45.234375 73.21875 -44.175781 73.21875 -42.59375 C 73.21875 -41.769531 72.925781 -41.359375 72.34375 -41.359375 C 72.164062 -41.359375 71.738281 -41.429688 71.0625 -41.578125 C 70.382812 -41.722656 69.867188 -41.796875 69.515625 -41.796875 C 65.347656 -41.796875 60.15625 -37.425781 53.9375 -28.6875 L 36.4375 -4.21875 C 28.925781 4.519531 21.738281 8.890625 14.875 8.890625 Z M 14.875 8.890625 "/></g></g></g><g fill="#000000" fill-opacity="1"><g transform="translate(188.735748, 168.749989)"><g><path d="M -2.375 0.4375 C -4.070312 0.4375 -4.921875 -0.0625 -4.921875 -1.0625 C -4.921875 -1.644531 -4.570312 -2.582031 -3.875 -3.875 C -1.175781 -8.6875 1.238281 -12.953125 3.375 -16.671875 C 5.519531 -20.398438 7.414062 -23.554688 9.0625 -26.140625 C 16.039062 -37.335938 20.96875 -43.410156 23.84375 -44.359375 C 23.96875 -44.359375 24.054688 -44.367188 24.109375 -44.390625 C 24.171875 -44.421875 24.226562 -44.4375 24.28125 -44.4375 C 25.050781 -44.4375 25.550781 -43.820312 25.78125 -42.59375 C 25.601562 -41.363281 22.550781 -36.90625 16.625 -29.21875 C 13.519531 -25.28125 11.101562 -22.035156 9.375 -19.484375 C 7.644531 -16.929688 6.570312 -15.070312 6.15625 -13.90625 C 8.09375 -15.3125 10.175781 -16.804688 12.40625 -18.390625 C 14.632812 -19.972656 16.804688 -21.484375 18.921875 -22.921875 C 21.035156 -24.359375 22.941406 -25.53125 24.640625 -26.4375 C 26.335938 -27.351562 27.65625 -27.867188 28.59375 -27.984375 C 28.71875 -27.984375 28.863281 -28 29.03125 -28.03125 C 29.207031 -28.0625 29.328125 -28.078125 29.390625 -28.078125 C 31.035156 -28.078125 31.859375 -27.3125 31.859375 -25.78125 C 31.859375 -25.375 31.328125 -24.460938 30.265625 -23.046875 C 29.210938 -21.640625 27.601562 -19.472656 25.4375 -16.546875 C 21.5625 -11.378906 19.625 -7.503906 19.625 -4.921875 C 19.625 -3.578125 20.125 -2.90625 21.125 -2.90625 C 22.175781 -2.957031 23.390625 -3.421875 24.765625 -4.296875 C 26.148438 -5.179688 27.546875 -6.269531 28.953125 -7.5625 C 30.359375 -8.851562 31.632812 -10.128906 32.78125 -11.390625 C 33.925781 -12.648438 34.789062 -13.632812 35.375 -14.34375 C 35.90625 -14.875 36.316406 -15.140625 36.609375 -15.140625 C 36.835938 -15.140625 36.953125 -15.019531 36.953125 -14.78125 C 36.953125 -14.3125 36.71875 -13.753906 36.25 -13.109375 C 35.550781 -12.234375 34.507812 -11.085938 33.125 -9.671875 C 31.75 -8.265625 30.253906 -6.84375 28.640625 -5.40625 C 27.023438 -3.96875 25.5 -2.765625 24.0625 -1.796875 C 22.625 -0.835938 21.554688 -0.359375 20.859375 -0.359375 C 17.390625 -0.359375 15.65625 -2.378906 15.65625 -6.421875 C 15.65625 -8.710938 16.710938 -11.707031 18.828125 -15.40625 C 19.648438 -16.8125 20.5 -18.21875 21.375 -19.625 C 22.257812 -21.03125 23.144531 -22.4375 24.03125 -23.84375 C 16.519531 -20.09375 9.710938 -14.550781 3.609375 -7.21875 C 2.847656 -6.15625 2.054688 -5.023438 1.234375 -3.828125 C 0.410156 -2.628906 -0.320312 -1.617188 -0.96875 -0.796875 C -1.613281 0.0234375 -2.082031 0.4375 -2.375 0.4375 Z M -2.375 0.4375 "/></g></g></g><g fill="#000000" fill-opacity="1"><g transform="translate(221.822286, 168.749989)"><g><path d="M 4.484375 1.140625 C 2.609375 1.140625 0.910156 0.539062 -0.609375 -0.65625 C -2.140625 -1.863281 -2.90625 -3.460938 -2.90625 -5.453125 C -2.90625 -9.617188 -0.351562 -14.375 4.75 -19.71875 C 9.96875 -25.113281 14.632812 -27.8125 18.75 -27.8125 C 20.09375 -27.8125 21.1875 -27.441406 22.03125 -26.703125 C 22.882812 -25.972656 23.3125 -25.082031 23.3125 -24.03125 C 23.3125 -20.738281 20.703125 -17.507812 15.484375 -14.34375 C 10.847656 -11.53125 6.945312 -10.125 3.78125 -10.125 C 3.3125 -10.125 2.898438 -10.179688 2.546875 -10.296875 C 1.671875 -8.710938 1.234375 -7.039062 1.234375 -5.28125 C 1.234375 -2.226562 2.671875 -0.703125 5.546875 -0.703125 C 8.472656 -0.703125 12.253906 -2.664062 16.890625 -6.59375 C 20.472656 -9.46875 23.523438 -12.519531 26.046875 -15.75 C 26.578125 -16.457031 27.046875 -16.8125 27.453125 -16.8125 C 27.804688 -16.8125 27.984375 -16.632812 27.984375 -16.28125 C 27.984375 -15.925781 27.75 -15.425781 27.28125 -14.78125 C 25.632812 -12.613281 23.875 -10.617188 22 -8.796875 C 20.125 -6.984375 18.097656 -5.3125 15.921875 -3.78125 C 11.410156 -0.5 7.597656 1.140625 4.484375 1.140625 Z M 5.015625 -12.0625 C 7.242188 -12.0625 10.148438 -13.175781 13.734375 -15.40625 C 14.898438 -16.21875 16.054688 -17.140625 17.203125 -18.171875 C 18.347656 -19.203125 19.285156 -20.242188 20.015625 -21.296875 C 20.753906 -22.347656 21.125 -23.285156 21.125 -24.109375 C 21.125 -24.867188 20.503906 -25.25 19.265625 -25.25 C 17.503906 -25.25 15.039062 -23.929688 11.875 -21.296875 C 10.351562 -20.003906 8.890625 -18.59375 7.484375 -17.0625 C 6.078125 -15.539062 4.875 -13.929688 3.875 -12.234375 C 4.226562 -12.117188 4.609375 -12.0625 5.015625 -12.0625 Z M 5.015625 -12.0625 "/></g></g></g><g fill="#000000" fill-opacity="1"><g transform="translate(94.265623, 241.499984)"><g><path d="M 66.265625 8.453125 C 64.796875 8.453125 63.8125 7.742188 63.3125 6.328125 C 62.8125 4.921875 62.5625 3.515625 62.5625 2.109375 C 62.5625 -2.929688 65.257812 -10.175781 70.65625 -19.625 C 74.125 -25.550781 79.46875 -33.53125 86.6875 -43.5625 C 78.875 -42.851562 68.78125 -36.691406 56.40625 -25.078125 C 46.550781 -15.753906 39.539062 -7.75 35.375 -1.0625 C 33.96875 1.113281 33.265625 2.671875 33.265625 3.609375 C 33.265625 4.015625 33.394531 4.273438 33.65625 4.390625 C 33.925781 4.515625 34.0625 4.578125 34.0625 4.578125 C 34.0625 4.691406 33.503906 5.128906 32.390625 5.890625 C 31.566406 6.359375 30.535156 6.59375 29.296875 6.59375 C 26.835938 6.59375 25.785156 6.035156 26.140625 4.921875 C 26.960938 2.347656 29.6875 -2.398438 34.3125 -9.328125 C 40.363281 -18.304688 44.296875 -24.4375 46.109375 -27.71875 C 50.097656 -34.875 52.09375 -40.535156 52.09375 -44.703125 C 52.09375 -47.640625 51.375 -49.664062 49.9375 -50.78125 C 48.5 -51.894531 46.488281 -52.453125 43.90625 -52.453125 C 36.925781 -52.453125 29.503906 -49.253906 21.640625 -42.859375 C 18.421875 -40.210938 15.429688 -37.289062 12.671875 -34.09375 C 9.910156 -30.894531 7.679688 -27.59375 5.984375 -24.1875 C 4.285156 -20.789062 3.4375 -17.453125 3.4375 -14.171875 C 3.4375 -8.535156 6.046875 -5.660156 11.265625 -5.546875 C 18.535156 -5.367188 24.019531 -7.800781 27.71875 -12.84375 C 29.125 -14.78125 29.828125 -16.597656 29.828125 -18.296875 C 29.828125 -19.296875 29.503906 -19.972656 28.859375 -20.328125 C 28.804688 -20.390625 28.78125 -20.476562 28.78125 -20.59375 C 28.78125 -20.820312 28.953125 -20.9375 29.296875 -20.9375 C 30.828125 -20.9375 31.59375 -19.941406 31.59375 -17.953125 C 31.59375 -16.722656 31.09375 -15.164062 30.09375 -13.28125 C 28.445312 -10.46875 26.007812 -8.238281 22.78125 -6.59375 C 19.5625 -4.957031 16.222656 -4.140625 12.765625 -4.140625 C 8.953125 -4.140625 5.898438 -5.28125 3.609375 -7.5625 C 1.316406 -9.851562 0.171875 -12.9375 0.171875 -16.8125 C 0.171875 -25.957031 6.453125 -35.578125 19.015625 -45.671875 C 21.117188 -47.367188 23.695312 -48.890625 26.75 -50.234375 C 29.800781 -51.585938 32.953125 -52.644531 36.203125 -53.40625 C 39.460938 -54.175781 42.472656 -54.5625 45.234375 -54.5625 C 48.691406 -54.5625 51.429688 -53.898438 53.453125 -52.578125 C 55.484375 -51.253906 56.5 -48.984375 56.5 -45.765625 C 56.5 -41.597656 54.796875 -36.082031 51.390625 -29.21875 C 50.628906 -27.6875 49.660156 -25.921875 48.484375 -23.921875 C 47.316406 -21.929688 45.941406 -19.738281 44.359375 -17.34375 C 46.171875 -19.625 49.128906 -22.523438 53.234375 -26.046875 C 60.628906 -32.265625 67.460938 -37.382812 73.734375 -41.40625 C 80.015625 -45.425781 85.738281 -48.375 90.90625 -50.25 C 91.4375 -50.476562 92.019531 -50.59375 92.65625 -50.59375 C 94.894531 -50.59375 96.304688 -49.332031 96.890625 -46.8125 C 97.179688 -45.8125 95.769531 -43.726562 92.65625 -40.5625 C 85.320312 -33.050781 78.988281 -24.664062 73.65625 -15.40625 C 68.789062 -6.832031 66.359375 -0.613281 66.359375 3.25 C 66.359375 4.894531 66.914062 5.71875 68.03125 5.71875 C 68.726562 5.71875 70.484375 5.101562 73.296875 3.875 C 75.765625 2.757812 77.378906 2.113281 78.140625 1.9375 C 78.429688 2.050781 78.578125 2.195312 78.578125 2.375 C 78.578125 3.257812 77.023438 4.492188 73.921875 6.078125 C 70.867188 7.660156 68.316406 8.453125 66.265625 8.453125 Z M 66.265625 8.453125 "/></g></g></g><g fill="#000000" fill-opacity="1"><g transform="translate(175.66203, 241.499984)"><g><path d="M 3.78125 0.171875 C 2.3125 0.171875 1.164062 -0.515625 0.34375 -1.890625 C -0.46875 -3.265625 -0.875 -4.597656 -0.875 -5.890625 C -0.875 -9.410156 1.675781 -14.34375 6.78125 -20.6875 C 11.9375 -27.070312 16.097656 -30.265625 19.265625 -30.265625 C 22.265625 -30.265625 23.765625 -28.679688 23.765625 -25.515625 C 23.765625 -25.046875 23.71875 -24.546875 23.625 -24.015625 C 23.539062 -23.492188 23.4375 -22.941406 23.3125 -22.359375 C 23.4375 -22.179688 23.734375 -22.09375 24.203125 -22.09375 C 25.785156 -22.09375 27.660156 -22.648438 29.828125 -23.765625 C 29.773438 -22.765625 27.457031 -21.328125 22.875 -19.453125 C 23.519531 -17.515625 21.585938 -13.816406 17.078125 -8.359375 C 12.441406 -2.671875 8.476562 0.171875 5.1875 0.171875 Z M 5.375 -2.46875 C 7.894531 -2.46875 11.117188 -4.785156 15.046875 -9.421875 C 18.859375 -13.929688 20.765625 -17.1875 20.765625 -19.1875 C 19.828125 -19.707031 18.65625 -21.054688 17.25 -23.234375 C 15.25 -23.234375 12.375 -20.828125 8.625 -16.015625 C 4.925781 -11.316406 3.132812 -7.707031 3.25 -5.1875 C 3.3125 -3.375 4.019531 -2.46875 5.375 -2.46875 Z M 5.375 -2.46875 "/></g></g></g><g fill="#000000" fill-opacity="1"><g transform="translate(200.388934, 241.499984)"><g><path d="M 5.453125 0.53125 C 3.578125 0.53125 2.097656 0.078125 1.015625 -0.828125 C -0.0664062 -1.742188 -0.609375 -3.375 -0.609375 -5.71875 C -0.609375 -7.070312 -0.203125 -8.785156 0.609375 -10.859375 C 1.429688 -12.941406 2.457031 -15.1875 3.6875 -17.59375 C 4.925781 -20 6.160156 -22.378906 7.390625 -24.734375 C 6.628906 -24.554688 5.957031 -24.46875 5.375 -24.46875 C 3.613281 -24.46875 2.734375 -25.140625 2.734375 -26.484375 C 2.734375 -27.128906 2.976562 -27.628906 3.46875 -27.984375 C 3.96875 -28.335938 4.425781 -28.539062 4.84375 -28.59375 C 4.84375 -28.59375 4.914062 -28.59375 5.0625 -28.59375 C 5.207031 -28.59375 5.394531 -28.625 5.625 -28.6875 L 10.734375 -28.6875 C 11.785156 -30.039062 12.867188 -31.476562 13.984375 -33 C 15.578125 -34.988281 16.84375 -36.160156 17.78125 -36.515625 L 18.046875 -36.515625 C 18.453125 -36.515625 19.035156 -36.3125 19.796875 -35.90625 C 20.734375 -35.375 21.203125 -34.84375 21.203125 -34.3125 C 21.203125 -33.550781 19.796875 -31.585938 16.984375 -28.421875 C 17.515625 -28.367188 18.273438 -28.34375 19.265625 -28.34375 C 20.265625 -28.34375 21.5 -28.34375 22.96875 -28.34375 C 23.675781 -28.34375 24.6875 -28.34375 26 -28.34375 C 27.320312 -28.34375 28.703125 -28.351562 30.140625 -28.375 C 31.578125 -28.40625 32.820312 -28.4375 33.875 -28.46875 C 34.9375 -28.5 35.523438 -28.515625 35.640625 -28.515625 C 35.816406 -28.453125 35.90625 -28.363281 35.90625 -28.25 C 35.90625 -27.71875 32.441406 -27.015625 25.515625 -26.140625 C 21.585938 -25.609375 18.582031 -25.195312 16.5 -24.90625 C 14.414062 -24.613281 13.285156 -24.4375 13.109375 -24.375 C 12.285156 -23.664062 11.285156 -22.460938 10.109375 -20.765625 C 8.941406 -19.066406 7.769531 -17.160156 6.59375 -15.046875 C 5.425781 -12.929688 4.445312 -10.921875 3.65625 -9.015625 C 2.863281 -7.109375 2.46875 -5.628906 2.46875 -4.578125 C 2.46875 -3.640625 2.816406 -2.859375 3.515625 -2.234375 C 4.222656 -1.617188 5.367188 -1.3125 6.953125 -1.3125 C 8.003906 -1.3125 9.265625 -1.546875 10.734375 -2.015625 C 12.203125 -2.492188 13.59375 -3.039062 14.90625 -3.65625 C 16.226562 -4.269531 17.1875 -4.753906 17.78125 -5.109375 C 19.300781 -6.046875 20.984375 -7.289062 22.828125 -8.84375 C 24.679688 -10.394531 26.519531 -12.171875 28.34375 -14.171875 C 29.15625 -14.992188 29.710938 -15.40625 30.015625 -15.40625 C 30.179688 -15.40625 30.265625 -15.285156 30.265625 -15.046875 C 30.265625 -14.578125 29.828125 -13.816406 28.953125 -12.765625 C 27.546875 -11.054688 25.972656 -9.425781 24.234375 -7.875 C 22.503906 -6.320312 20.585938 -4.898438 18.484375 -3.609375 C 16.078125 -2.140625 13.769531 -1.082031 11.5625 -0.4375 C 9.363281 0.207031 7.328125 0.53125 5.453125 0.53125 Z M 5.453125 0.53125 "/></g></g></g><g fill="#000000" fill-opacity="1"><g transform="translate(226.523782, 241.499984)"><g><path d="M 4.484375 1.140625 C 2.609375 1.140625 0.910156 0.539062 -0.609375 -0.65625 C -2.140625 -1.863281 -2.90625 -3.460938 -2.90625 -5.453125 C -2.90625 -9.617188 -0.351562 -14.375 4.75 -19.71875 C 9.96875 -25.113281 14.632812 -27.8125 18.75 -27.8125 C 20.09375 -27.8125 21.1875 -27.441406 22.03125 -26.703125 C 22.882812 -25.972656 23.3125 -25.082031 23.3125 -24.03125 C 23.3125 -20.738281 20.703125 -17.507812 15.484375 -14.34375 C 10.847656 -11.53125 6.945312 -10.125 3.78125 -10.125 C 3.3125 -10.125 2.898438 -10.179688 2.546875 -10.296875 C 1.671875 -8.710938 1.234375 -7.039062 1.234375 -5.28125 C 1.234375 -2.226562 2.671875 -0.703125 5.546875 -0.703125 C 8.472656 -0.703125 12.253906 -2.664062 16.890625 -6.59375 C 20.472656 -9.46875 23.523438 -12.519531 26.046875 -15.75 C 26.578125 -16.457031 27.046875 -16.8125 27.453125 -16.8125 C 27.804688 -16.8125 27.984375 -16.632812 27.984375 -16.28125 C 27.984375 -15.925781 27.75 -15.425781 27.28125 -14.78125 C 25.632812 -12.613281 23.875 -10.617188 22 -8.796875 C 20.125 -6.984375 18.097656 -5.3125 15.921875 -3.78125 C 11.410156 -0.5 7.597656 1.140625 4.484375 1.140625 Z M 5.015625 -12.0625 C 7.242188 -12.0625 10.148438 -13.175781 13.734375 -15.40625 C 14.898438 -16.21875 16.054688 -17.140625 17.203125 -18.171875 C 18.347656 -19.203125 19.285156 -20.242188 20.015625 -21.296875 C 20.753906 -22.347656 21.125 -23.285156 21.125 -24.109375 C 21.125 -24.867188 20.503906 -25.25 19.265625 -25.25 C 17.503906 -25.25 15.039062 -23.929688 11.875 -21.296875 C 10.351562 -20.003906 8.890625 -18.59375 7.484375 -17.0625 C 6.078125 -15.539062 4.875 -13.929688 3.875 -12.234375 C 4.226562 -12.117188 4.609375 -12.0625 5.015625 -12.0625 Z M 5.015625 -12.0625 "/></g></g></g><g fill="#000000" fill-opacity="1"><g transform="translate(249.138782, 241.499984)"><g><path d="M 10.125 0.171875 C 7.363281 0.171875 5.320312 -0.734375 4 -2.546875 C 2.6875 -4.367188 1.617188 -6.894531 0.796875 -10.125 C -0.265625 -9.0625 -1 -8.53125 -1.40625 -8.53125 C -1.695312 -8.53125 -1.84375 -8.765625 -1.84375 -9.234375 C -1.84375 -9.585938 -1.695312 -9.910156 -1.40625 -10.203125 C -1.40625 -10.203125 -0.660156 -11.109375 0.828125 -12.921875 C 2.328125 -14.742188 4.867188 -17.300781 8.453125 -20.59375 L 19.53125 -30.96875 C 21.0625 -32.4375 22.28125 -33.550781 23.1875 -34.3125 C 24.09375 -35.082031 24.753906 -35.46875 25.171875 -35.46875 C 27.046875 -35.46875 27.984375 -34.765625 27.984375 -33.359375 C 27.984375 -32.648438 27.601562 -31.828125 26.84375 -30.890625 C 26.25 -30.179688 25.820312 -29.632812 25.5625 -29.25 C 25.300781 -28.875 25.140625 -28.65625 25.078125 -28.59375 C 24.023438 -26.78125 23.054688 -23.523438 22.171875 -18.828125 C 21.523438 -15.367188 20.96875 -12.523438 20.5 -10.296875 C 20.03125 -8.066406 19.648438 -6.453125 19.359375 -5.453125 C 21.828125 -5.515625 24.257812 -6.273438 26.65625 -7.734375 C 29.0625 -9.203125 31.644531 -11.609375 34.40625 -14.953125 C 34.519531 -15.078125 34.691406 -15.253906 34.921875 -15.484375 C 35.160156 -15.722656 35.398438 -15.84375 35.640625 -15.84375 C 35.992188 -15.84375 36.171875 -15.695312 36.171875 -15.40625 C 36.171875 -15.101562 36.082031 -14.804688 35.90625 -14.515625 C 35.726562 -14.222656 35.550781 -13.960938 35.375 -13.734375 C 33.550781 -11.554688 31.847656 -9.78125 30.265625 -8.40625 C 28.679688 -7.03125 27.007812 -5.941406 25.25 -5.140625 C 23.488281 -4.347656 21.410156 -3.691406 19.015625 -3.171875 L 16.1875 -1.3125 C 15.425781 -0.789062 14.515625 -0.410156 13.453125 -0.171875 C 12.398438 0.0546875 11.289062 0.171875 10.125 0.171875 Z M 11.171875 -4.3125 C 12.523438 -4.3125 13.640625 -4.632812 14.515625 -5.28125 C 15.160156 -5.632812 15.789062 -6.613281 16.40625 -8.21875 C 17.03125 -9.832031 17.632812 -11.84375 18.21875 -14.25 C 18.6875 -16.3125 19.050781 -18.320312 19.3125 -20.28125 C 19.582031 -22.25 19.832031 -24.140625 20.0625 -25.953125 L 20.421875 -28.953125 C 19.066406 -27.953125 17.363281 -26.515625 15.3125 -24.640625 C 13.257812 -22.765625 11.234375 -20.800781 9.234375 -18.75 C 7.242188 -16.6875 5.953125 -15.171875 5.359375 -14.203125 C 4.773438 -13.242188 4.457031 -12.53125 4.40625 -12.0625 C 4.164062 -9.707031 4.734375 -7.828125 6.109375 -6.421875 C 7.492188 -5.015625 9.179688 -4.3125 11.171875 -4.3125 Z M 11.171875 -4.3125 "/></g></g></g><g fill="#000000" fill-opacity="1"><g transform="translate(156.868251, 273.129973)"><g><path d="M 5.875 -0.875 L 5.859375 0 L 1 0 L 1 -7.875 L 5.859375 -7.875 L 5.859375 -7.015625 L 2.078125 -7.015625 L 2.078125 -4.390625 L 5.140625 -4.390625 L 5.140625 -3.5625 L 2.078125 -3.5625 L 2.078125 -0.875 Z M 5.875 -0.875 "/></g></g></g><g fill="#000000" fill-opacity="1"><g transform="translate(164.316187, 273.129973)"><g><path d="M 9.203125 -7.875 L 9.203125 0 L 8.265625 0 L 8.265625 -5.796875 C 8.265625 -5.867188 8.265625 -5.945312 8.265625 -6.03125 C 8.273438 -6.125 8.285156 -6.21875 8.296875 -6.3125 L 5.59375 -1.375 C 5.507812 -1.21875 5.378906 -1.140625 5.203125 -1.140625 L 5.046875 -1.140625 C 4.878906 -1.140625 4.753906 -1.21875 4.671875 -1.375 L 1.90625 -6.328125 C 1.925781 -6.140625 1.9375 -5.960938 1.9375 -5.796875 L 1.9375 0 L 1 0 L 1 -7.875 L 1.796875 -7.875 C 1.890625 -7.875 1.960938 -7.863281 2.015625 -7.84375 C 2.066406 -7.832031 2.113281 -7.785156 2.15625 -7.703125 L 4.890625 -2.84375 C 4.929688 -2.757812 4.972656 -2.671875 5.015625 -2.578125 C 5.054688 -2.484375 5.09375 -2.382812 5.125 -2.28125 C 5.164062 -2.382812 5.207031 -2.484375 5.25 -2.578125 C 5.289062 -2.671875 5.332031 -2.765625 5.375 -2.859375 L 8.046875 -7.703125 C 8.097656 -7.785156 8.148438 -7.832031 8.203125 -7.84375 C 8.253906 -7.863281 8.328125 -7.875 8.421875 -7.875 Z M 9.203125 -7.875 "/></g></g></g><g fill="#000000" fill-opacity="1"><g transform="translate(175.622326, 273.129973)"><g><path d="M 3.1875 -4.0625 C 3.5 -4.0625 3.769531 -4.097656 4 -4.171875 C 4.238281 -4.253906 4.4375 -4.363281 4.59375 -4.5 C 4.757812 -4.632812 4.878906 -4.796875 4.953125 -4.984375 C 5.035156 -5.179688 5.078125 -5.394531 5.078125 -5.625 C 5.078125 -6.09375 4.921875 -6.445312 4.609375 -6.6875 C 4.304688 -6.925781 3.847656 -7.046875 3.234375 -7.046875 L 2.0625 -7.046875 L 2.0625 -4.0625 Z M 6.828125 0 L 5.890625 0 C 5.691406 0 5.546875 -0.0703125 5.453125 -0.21875 L 3.40625 -3.046875 C 3.34375 -3.128906 3.273438 -3.1875 3.203125 -3.21875 C 3.140625 -3.257812 3.03125 -3.28125 2.875 -3.28125 L 2.0625 -3.28125 L 2.0625 0 L 1 0 L 1 -7.875 L 3.234375 -7.875 C 3.734375 -7.875 4.164062 -7.820312 4.53125 -7.71875 C 4.894531 -7.625 5.191406 -7.476562 5.421875 -7.28125 C 5.660156 -7.09375 5.835938 -6.863281 5.953125 -6.59375 C 6.066406 -6.332031 6.125 -6.035156 6.125 -5.703125 C 6.125 -5.421875 6.078125 -5.15625 5.984375 -4.90625 C 5.898438 -4.664062 5.773438 -4.445312 5.609375 -4.25 C 5.441406 -4.0625 5.238281 -3.898438 5 -3.765625 C 4.757812 -3.628906 4.488281 -3.53125 4.1875 -3.46875 C 4.320312 -3.382812 4.4375 -3.269531 4.53125 -3.125 Z M 6.828125 0 "/></g></g></g><g fill="#000000" fill-opacity="1"><g transform="translate(183.608869, 273.129973)"><g><path d="M 5.875 -0.875 L 5.859375 0 L 1 0 L 1 -7.875 L 5.859375 -7.875 L 5.859375 -7.015625 L 2.078125 -7.015625 L 2.078125 -4.390625 L 5.140625 -4.390625 L 5.140625 -3.5625 L 2.078125 -3.5625 L 2.078125 -0.875 Z M 5.875 -0.875 "/></g></g></g><g fill="#000000" fill-opacity="1"><g transform="translate(191.056803, 273.129973)"><g/></g></g><g fill="#000000" fill-opacity="1"><g transform="translate(194.970794, 273.129973)"><g><path d="M 2.0625 -4.421875 L 2.46875 -4.421875 C 2.601562 -4.421875 2.710938 -4.4375 2.796875 -4.46875 C 2.890625 -4.507812 2.96875 -4.570312 3.03125 -4.65625 L 5.65625 -7.625 C 5.726562 -7.71875 5.804688 -7.78125 5.890625 -7.8125 C 5.972656 -7.851562 6.070312 -7.875 6.1875 -7.875 L 7.09375 -7.875 L 4.09375 -4.484375 C 4.007812 -4.398438 3.929688 -4.328125 3.859375 -4.265625 C 3.796875 -4.210938 3.726562 -4.164062 3.65625 -4.125 C 3.757812 -4.09375 3.847656 -4.046875 3.921875 -3.984375 C 4.003906 -3.921875 4.082031 -3.835938 4.15625 -3.734375 L 7.296875 0 L 6.375 0 C 6.300781 0 6.238281 -0.00390625 6.1875 -0.015625 C 6.144531 -0.0234375 6.101562 -0.0390625 6.0625 -0.0625 C 6.03125 -0.0820312 6 -0.101562 5.96875 -0.125 C 5.9375 -0.15625 5.910156 -0.1875 5.890625 -0.21875 L 3.171875 -3.359375 C 3.097656 -3.453125 3.019531 -3.515625 2.9375 -3.546875 C 2.851562 -3.585938 2.722656 -3.609375 2.546875 -3.609375 L 2.0625 -3.609375 L 2.0625 0 L 1 0 L 1 -7.875 L 2.0625 -7.875 Z M 2.0625 -4.421875 "/></g></g></g><g fill="#000000" fill-opacity="1"><g transform="translate(203.35305, 273.129973)"><g><path d="M 4.046875 -0.84375 C 4.367188 -0.84375 4.660156 -0.894531 4.921875 -1 C 5.179688 -1.113281 5.398438 -1.269531 5.578125 -1.46875 C 5.753906 -1.664062 5.890625 -1.898438 5.984375 -2.171875 C 6.078125 -2.453125 6.125 -2.757812 6.125 -3.09375 L 6.125 -7.875 L 7.1875 -7.875 L 7.1875 -3.09375 C 7.1875 -2.632812 7.113281 -2.210938 6.96875 -1.828125 C 6.820312 -1.441406 6.613281 -1.101562 6.34375 -0.8125 C 6.070312 -0.53125 5.742188 -0.304688 5.359375 -0.140625 C 4.972656 0.015625 4.535156 0.09375 4.046875 0.09375 C 3.566406 0.09375 3.128906 0.015625 2.734375 -0.140625 C 2.347656 -0.304688 2.019531 -0.53125 1.75 -0.8125 C 1.476562 -1.101562 1.269531 -1.441406 1.125 -1.828125 C 0.976562 -2.210938 0.90625 -2.632812 0.90625 -3.09375 L 0.90625 -7.875 L 1.96875 -7.875 L 1.96875 -3.09375 C 1.96875 -2.757812 2.015625 -2.457031 2.109375 -2.1875 C 2.203125 -1.914062 2.335938 -1.679688 2.515625 -1.484375 C 2.691406 -1.285156 2.910156 -1.128906 3.171875 -1.015625 C 3.429688 -0.898438 3.722656 -0.84375 4.046875 -0.84375 Z M 4.046875 -0.84375 "/></g></g></g><g fill="#000000" fill-opacity="1"><g transform="translate(212.537728, 273.129973)"><g><path d="M 6.265625 -7.484375 C 6.265625 -7.359375 6.226562 -7.242188 6.15625 -7.140625 L 1.6875 -0.875 L 6.203125 -0.875 L 6.203125 0 L 0.296875 0 L 0.296875 -0.421875 C 0.296875 -0.472656 0.304688 -0.523438 0.328125 -0.578125 C 0.347656 -0.628906 0.367188 -0.679688 0.390625 -0.734375 L 4.875 -7.015625 L 0.5 -7.015625 L 0.5 -7.875 L 6.265625 -7.875 Z M 6.265625 -7.484375 "/></g></g></g><g fill="#000000" fill-opacity="1"><g transform="translate(220.254965, 273.129973)"><g><path d="M 5.875 -0.875 L 5.859375 0 L 1 0 L 1 -7.875 L 5.859375 -7.875 L 5.859375 -7.015625 L 2.078125 -7.015625 L 2.078125 -4.390625 L 5.140625 -4.390625 L 5.140625 -3.5625 L 2.078125 -3.5625 L 2.078125 -0.875 Z M 5.875 -0.875 "/></g></g></g><g fill="#000000" fill-opacity="1"><g transform="translate(227.7029, 273.129973)"><g><path d="M 3.96875 -3.140625 L 3.96875 0 L 2.90625 0 L 2.90625 -3.140625 L 0.015625 -7.875 L 0.953125 -7.875 C 1.046875 -7.875 1.117188 -7.851562 1.171875 -7.8125 C 1.222656 -7.769531 1.269531 -7.710938 1.3125 -7.640625 L 3.125 -4.578125 C 3.1875 -4.441406 3.242188 -4.316406 3.296875 -4.203125 C 3.347656 -4.097656 3.394531 -3.988281 3.4375 -3.875 C 3.476562 -3.988281 3.523438 -4.097656 3.578125 -4.203125 C 3.628906 -4.316406 3.6875 -4.441406 3.75 -4.578125 L 5.546875 -7.640625 C 5.578125 -7.703125 5.625 -7.753906 5.6875 -7.796875 C 5.75 -7.847656 5.820312 -7.875 5.90625 -7.875 L 6.859375 -7.875 Z M 3.96875 -3.140625 "/></g></g></g></svg>