<svg xmlns="http://www.w3.org/2000/svg" xmlns:xlink="http://www.w3.org/1999/xlink" width="500" zoomAndPan="magnify" viewBox="0 0 375 149.999998" height="200" preserveAspectRatio="xMidYMid meet" version="1.0"><defs><g/><clipPath id="037156de09"><path d="M 32 40 L 90 40 L 90 116 L 32 116 Z M 32 40 " clip-rule="nonzero"/></clipPath><clipPath id="6cff1a77d1"><path d="M 32.527344 49.988281 L 47.648438 40.214844 L 90.222656 106.070312 L 75.097656 115.84375 Z M 32.527344 49.988281 " clip-rule="nonzero"/></clipPath><clipPath id="a81c6f8d21"><path d="M 32.527344 49.988281 L 47.328125 40.421875 L 89.882812 106.25 L 75.082031 115.816406 Z M 32.527344 49.988281 " clip-rule="nonzero"/></clipPath></defs><rect x="-37.5" width="450" fill="#ffffff" y="-15" height="179.999997" fill-opacity="1"/><rect x="-37.5" width="450" fill="#ffffff" y="-15" height="179.999997" fill-opacity="1"/><rect x="-37.5" width="450" fill="#ffffff" y="-15" height="179.999997" fill-opacity="1"/><g fill="#474646" fill-opacity="1"><g transform="translate(114.689691, 57.396384)"><g><path d="M 30.980469 -40.304688 C 25.289062 -40.304688 19.914062 -37.300781 17.148438 -32.875 L 17.148438 -57.691406 L 5.058594 -55.636719 L 5.058594 0 L 17.148438 0 L 17.148438 -29.714844 C 18.886719 -33.824219 22.523438 -36.589844 26.238281 -36.589844 C 29.875 -36.589844 32.402344 -33.746094 32.402344 -30.03125 L 32.402344 0 L 44.496094 0 L 44.496094 -27.265625 C 44.496094 -34.695312 38.882812 -40.304688 30.980469 -40.304688 Z M 30.980469 -40.304688 "/></g></g></g><g fill="#474646" fill-opacity="1"><g transform="translate(163.597668, 57.396384)"><g><path d="M 37.300781 -15.570312 C 33.984375 -15.570312 31.535156 -13.117188 31.535156 -10.035156 C 31.535156 -6.796875 33.984375 -4.425781 37.144531 -4.425781 L 37.460938 -4.425781 C 35.484375 -2.6875 32.402344 -1.660156 28.925781 -1.660156 C 20.152344 -1.660156 15.09375 -7.980469 15.09375 -21.101562 L 43.308594 -21.101562 C 43.308594 -32.007812 35.089844 -40.304688 23.710938 -40.304688 C 12.011719 -40.304688 2.6875 -31.613281 2.6875 -19.835938 C 2.6875 -8.0625 12.089844 0.789062 25.367188 0.789062 C 34.929688 0.789062 42.753906 -3.871094 42.753906 -10.035156 C 42.753906 -13.117188 40.382812 -15.570312 37.300781 -15.570312 Z M 23.789062 -38.726562 C 28.609375 -38.726562 31.691406 -32.796875 31.929688 -22.683594 L 15.09375 -22.683594 C 15.410156 -32.007812 18.652344 -38.726562 23.789062 -38.726562 Z M 23.789062 -38.726562 "/></g></g></g><g fill="#474646" fill-opacity="1"><g transform="translate(209.489873, 57.396384)"><g/></g></g><g fill="#1c2120" fill-opacity="1"><g transform="translate(98.090965, 136.274181)"><g><path d="M 33.90625 1.105469 C 51.027344 1.105469 64.058594 -11.265625 64.058594 -27.613281 C 64.058594 -43.957031 51.027344 -56.328125 33.90625 -56.328125 C 16.675781 -56.328125 3.753906 -43.957031 3.753906 -27.613281 C 3.753906 -11.265625 16.675781 1.105469 33.90625 1.105469 Z M 33.90625 -1.105469 C 25.953125 -1.105469 21.09375 -11.042969 21.09375 -27.613281 C 21.09375 -44.179688 25.953125 -54.117188 33.90625 -54.117188 C 41.75 -54.117188 46.71875 -44.179688 46.71875 -27.613281 C 46.71875 -11.042969 41.75 -1.105469 33.90625 -1.105469 Z M 33.90625 -1.105469 "/></g></g></g><g fill="#1c2120" fill-opacity="1"><g transform="translate(165.786239, 136.274181)"><g><path d="M 40.203125 -8.394531 C 39.097656 -5.300781 35.785156 -2.980469 32.472656 -2.980469 C 28.386719 -2.980469 25.402344 -6.40625 25.402344 -11.042969 L 25.402344 -53.015625 L 39.539062 -53.015625 L 39.539062 -55.222656 L 25.402344 -55.222656 L 25.402344 -70.90625 L 8.503906 -67.261719 L 8.503906 -55.222656 L 1.878906 -55.222656 L 1.878906 -53.015625 L 8.503906 -53.015625 L 8.503906 -13.804688 C 8.503906 -5.300781 16.015625 1.105469 26.175781 1.105469 C 33.796875 1.105469 40.867188 -2.539062 41.96875 -7.398438 Z M 40.203125 -8.394531 "/></g></g></g><g fill="#1c2120" fill-opacity="1"><g transform="translate(208.413272, 136.274181)"><g><path d="M 52.132812 -21.757812 C 47.492188 -21.757812 44.066406 -18.335938 44.066406 -14.027344 C 44.066406 -9.5 47.492188 -6.183594 51.910156 -6.183594 L 52.351562 -6.183594 C 49.589844 -3.753906 45.28125 -2.320312 40.421875 -2.320312 C 28.164062 -2.320312 21.09375 -11.15625 21.09375 -29.488281 L 60.523438 -29.488281 C 60.523438 -44.730469 49.039062 -56.328125 33.132812 -56.328125 C 16.789062 -56.328125 3.753906 -44.179688 3.753906 -27.722656 C 3.753906 -11.265625 16.898438 1.105469 35.453125 1.105469 C 48.816406 1.105469 59.75 -5.410156 59.75 -14.027344 C 59.75 -18.335938 56.4375 -21.757812 52.132812 -21.757812 Z M 33.246094 -54.117188 C 39.980469 -54.117188 44.289062 -45.835938 44.621094 -31.699219 L 21.09375 -31.699219 C 21.539062 -44.730469 26.066406 -54.117188 33.246094 -54.117188 Z M 33.246094 -54.117188 "/></g></g></g><g fill="#1c2120" fill-opacity="1"><g transform="translate(272.574698, 136.274181)"><g><path d="M 30.59375 -35.121094 C 22.199219 -38.765625 16.566406 -41.195312 16.566406 -46.054688 C 16.566406 -50.914062 21.867188 -53.898438 29.601562 -53.898438 C 33.796875 -53.898438 37.441406 -53.125 40.203125 -51.6875 C 37.21875 -51.027344 35.234375 -48.484375 35.234375 -45.394531 C 35.234375 -41.636719 38.105469 -38.878906 41.96875 -38.878906 C 45.613281 -38.878906 48.265625 -41.636719 48.265625 -45.394531 C 48.265625 -51.578125 39.320312 -56.328125 27.613281 -56.328125 C 13.804688 -56.328125 4.527344 -49.8125 4.527344 -39.652344 C 4.527344 -27.941406 17.230469 -23.414062 24.628906 -20.210938 C 33.246094 -16.234375 38.65625 -13.695312 38.65625 -9.054688 C 38.65625 -4.195312 33.246094 -1.324219 25.183594 -1.324219 C 19.660156 -1.324219 14.910156 -2.539062 11.707031 -4.640625 C 14.6875 -5.082031 17.007812 -7.621094 17.007812 -11.042969 C 17.007812 -14.800781 14.246094 -17.5625 10.714844 -17.5625 C 6.738281 -17.5625 3.976562 -14.800781 3.976562 -11.042969 C 3.976562 -4.195312 14.136719 1.105469 27.167969 1.105469 C 42.082031 1.105469 50.695312 -5.855469 50.695312 -15.90625 C 50.695312 -27.28125 39.097656 -31.476562 30.59375 -35.121094 Z M 30.59375 -35.121094 "/></g></g></g><g fill="#474646" fill-opacity="1"><g transform="translate(-1.88731, 144.711143)"><g><path d="M 119.46875 -142.875 C 118.519531 -133.320312 118.046875 -124.710938 118.046875 -117.046875 C 118.046875 -110.316406 118.25 -104.800781 118.65625 -100.5 L 114.015625 -100.5 C 112.941406 -110.851562 111.597656 -118.550781 109.984375 -123.59375 C 108.367188 -128.644531 105.539062 -132.347656 101.5 -134.703125 C 97.46875 -137.054688 91.28125 -138.234375 82.9375 -138.234375 L 72.046875 -138.234375 L 72.046875 -23.40625 C 72.046875 -17.757812 72.582031 -13.65625 73.65625 -11.09375 C 74.726562 -8.539062 76.609375 -6.789062 79.296875 -5.84375 C 81.992188 -4.90625 86.367188 -4.300781 92.421875 -4.03125 L 92.421875 0 C 85.421875 -0.40625 75.535156 -0.609375 62.765625 -0.609375 C 49.304688 -0.609375 39.347656 -0.40625 32.890625 0 L 32.890625 -4.03125 C 38.941406 -4.300781 43.3125 -4.90625 46 -5.84375 C 48.695312 -6.789062 50.582031 -8.539062 51.65625 -11.09375 C 52.738281 -13.65625 53.28125 -17.757812 53.28125 -23.40625 L 53.28125 -138.234375 L 42.375 -138.234375 C 34.03125 -138.234375 27.84375 -137.054688 23.8125 -134.703125 C 19.78125 -132.347656 16.957031 -128.644531 15.34375 -123.59375 C 13.726562 -118.550781 12.378906 -110.851562 11.296875 -100.5 L 6.65625 -100.5 C 7.0625 -104.800781 7.265625 -110.316406 7.265625 -117.046875 C 7.265625 -124.710938 6.796875 -133.320312 5.859375 -142.875 C 17.015625 -142.46875 35.984375 -142.265625 62.765625 -142.265625 C 89.398438 -142.265625 108.300781 -142.46875 119.46875 -142.875 Z M 119.46875 -142.875 "/></g></g></g><g clip-path="url(#037156de09)"><g clip-path="url(#6cff1a77d1)"><g clip-path="url(#a81c6f8d21)"><path fill="#ffffff" d="M 32.527344 49.988281 L 47.160156 40.527344 L 89.734375 106.382812 L 75.097656 115.84375 Z M 32.527344 49.988281 " fill-opacity="1" fill-rule="nonzero"/></g></g></g><g fill="#1c2120" fill-opacity="1"><g transform="translate(9.813209, 136.042139)"><g><path d="M 97.28125 -99.890625 C 93.882812 -99.691406 91.363281 -99.179688 89.71875 -98.359375 C 88.070312 -97.535156 86.957031 -96.179688 86.375 -94.296875 C 85.800781 -92.410156 85.515625 -89.628906 85.515625 -85.953125 L 85.515625 0.71875 L 82.171875 0.71875 L 21.203125 -93.5 L 21.203125 -16.84375 C 21.203125 -13.0625 21.515625 -10.25 22.140625 -8.40625 C 22.765625 -6.570312 24 -5.242188 25.84375 -4.421875 C 27.6875 -3.597656 30.539062 -3.09375 34.40625 -2.90625 L 34.40625 0 C 30.925781 -0.289062 25.988281 -0.4375 19.59375 -0.4375 C 13.789062 -0.4375 9.289062 -0.289062 6.09375 0 L 6.09375 -2.90625 C 9.476562 -3.09375 11.992188 -3.597656 13.640625 -4.421875 C 15.285156 -5.242188 16.398438 -6.597656 16.984375 -8.484375 C 17.566406 -10.378906 17.859375 -13.164062 17.859375 -16.84375 L 17.859375 -87.40625 C 17.859375 -91.082031 17.566406 -93.742188 16.984375 -95.390625 C 16.398438 -97.035156 15.3125 -98.144531 13.71875 -98.71875 C 12.125 -99.300781 9.582031 -99.691406 6.09375 -99.890625 L 6.09375 -102.796875 C 9.289062 -102.503906 13.789062 -102.359375 19.59375 -102.359375 C 23.957031 -102.359375 27.734375 -102.503906 30.921875 -102.796875 L 82.171875 -23.8125 L 82.171875 -85.953125 C 82.171875 -89.722656 81.851562 -92.523438 81.21875 -94.359375 C 80.59375 -96.203125 79.359375 -97.535156 77.515625 -98.359375 C 75.679688 -99.179688 72.832031 -99.691406 68.96875 -99.890625 L 68.96875 -102.796875 C 72.445312 -102.503906 77.378906 -102.359375 83.765625 -102.359375 C 89.578125 -102.359375 94.082031 -102.503906 97.28125 -102.796875 Z M 97.28125 -99.890625 "/></g></g></g></svg>