<svg xmlns="http://www.w3.org/2000/svg" xmlns:xlink="http://www.w3.org/1999/xlink" width="500" zoomAndPan="magnify" viewBox="0 0 375 374.999991" height="500" preserveAspectRatio="xMidYMid meet" version="1.0"><defs><g/><clipPath id="d787c6e0b0"><path d="M 177.203125 103.042969 L 197.796875 103.042969 L 197.796875 201.851562 L 177.203125 201.851562 Z M 177.203125 103.042969 " clip-rule="nonzero"/></clipPath><clipPath id="12bf00a819"><path d="M 177.203125 177.714844 L 197.796875 177.714844 L 197.796875 207 L 177.203125 207 Z M 177.203125 177.714844 " clip-rule="nonzero"/></clipPath></defs><g fill="#1c2120" fill-opacity="1"><g transform="translate(147.988822, 194.572437)"><g><path d="M 75 -77.015625 C 72.382812 -76.867188 70.441406 -76.476562 69.171875 -75.84375 C 67.910156 -75.207031 67.054688 -74.160156 66.609375 -72.703125 C 66.160156 -71.242188 65.9375 -69.097656 65.9375 -66.265625 L 65.9375 0.5625 L 63.359375 0.5625 L 16.34375 -72.09375 L 16.34375 -12.984375 C 16.34375 -10.078125 16.582031 -7.910156 17.0625 -6.484375 C 17.550781 -5.066406 18.503906 -4.039062 19.921875 -3.40625 C 21.335938 -2.78125 23.539062 -2.390625 26.53125 -2.234375 L 26.53125 0 C 23.84375 -0.21875 20.035156 -0.328125 15.109375 -0.328125 C 10.628906 -0.328125 7.160156 -0.21875 4.703125 0 L 4.703125 -2.234375 C 7.316406 -2.390625 9.253906 -2.78125 10.515625 -3.40625 C 11.785156 -4.039062 12.644531 -5.085938 13.09375 -6.546875 C 13.539062 -8.003906 13.765625 -10.148438 13.765625 -12.984375 L 13.765625 -67.390625 C 13.765625 -70.222656 13.539062 -72.273438 13.09375 -73.546875 C 12.644531 -74.816406 11.804688 -75.675781 10.578125 -76.125 C 9.347656 -76.570312 7.390625 -76.867188 4.703125 -77.015625 L 4.703125 -79.25 C 7.160156 -79.03125 10.628906 -78.921875 15.109375 -78.921875 C 18.472656 -78.921875 21.382812 -79.03125 23.84375 -79.25 L 63.359375 -18.359375 L 63.359375 -66.265625 C 63.359375 -69.171875 63.113281 -71.332031 62.625 -72.75 C 62.144531 -74.175781 61.191406 -75.207031 59.765625 -75.84375 C 58.347656 -76.476562 56.148438 -76.867188 53.171875 -77.015625 L 53.171875 -79.25 C 55.859375 -79.03125 59.664062 -78.921875 64.59375 -78.921875 C 69.0625 -78.921875 72.53125 -79.03125 75 -79.25 Z M 75 -77.015625 "/></g></g></g><g clip-path="url(#d787c6e0b0)"><path fill="#ffffff" d="M 177.203125 103.042969 L 197.992188 103.042969 L 197.992188 201.78125 L 177.203125 201.78125 Z M 177.203125 103.042969 " fill-opacity="1" fill-rule="nonzero"/></g><g clip-path="url(#12bf00a819)"><path fill="#ffffff" d="M 177.203125 177.714844 L 197.992188 177.714844 L 197.992188 206.945312 L 177.203125 206.945312 Z M 177.203125 177.714844 " fill-opacity="1" fill-rule="nonzero"/></g><g fill="#1c2120" fill-opacity="1"><g transform="translate(139.537774, 206.008184)"><g><path d="M 92.09375 -110.140625 C 91.363281 -102.773438 91 -96.132812 91 -90.21875 C 91 -85.039062 91.15625 -80.789062 91.46875 -77.46875 L 87.890625 -77.46875 C 87.054688 -85.457031 86.019531 -91.394531 84.78125 -95.28125 C 83.539062 -99.164062 81.363281 -102.015625 78.25 -103.828125 C 75.132812 -105.648438 70.363281 -106.5625 63.9375 -106.5625 L 55.53125 -106.5625 L 55.53125 -18.046875 C 55.53125 -13.691406 55.945312 -10.523438 56.78125 -8.546875 C 57.613281 -6.578125 59.066406 -5.226562 61.140625 -4.5 C 63.210938 -3.78125 66.582031 -3.316406 71.25 -3.109375 L 71.25 0 C 65.851562 -0.3125 58.226562 -0.46875 48.375 -0.46875 C 38.007812 -0.46875 30.335938 -0.3125 25.359375 0 L 25.359375 -3.109375 C 30.023438 -3.316406 33.394531 -3.78125 35.46875 -4.5 C 37.539062 -5.226562 38.988281 -6.578125 39.8125 -8.546875 C 40.644531 -10.523438 41.0625 -13.691406 41.0625 -18.046875 L 41.0625 -106.5625 L 32.671875 -106.5625 C 26.234375 -106.5625 21.457031 -105.648438 18.34375 -103.828125 C 15.238281 -102.015625 13.0625 -99.164062 11.8125 -95.28125 C 10.570312 -91.394531 9.539062 -85.457031 8.71875 -77.46875 L 5.140625 -77.46875 C 5.441406 -80.789062 5.59375 -85.039062 5.59375 -90.21875 C 5.59375 -96.132812 5.234375 -102.773438 4.515625 -110.140625 C 13.117188 -109.828125 27.738281 -109.671875 48.375 -109.671875 C 68.914062 -109.671875 83.488281 -109.828125 92.09375 -110.140625 Z M 92.09375 -110.140625 "/></g></g></g><g fill="#1c2120" fill-opacity="1"><g transform="translate(125.566922, 261.53928)"><g><path d="M 12.675781 -15.089844 L 0.582031 -15.089844 L 0.582031 -14.65625 L 5.691406 -14.65625 L 5.691406 0 L 7.609375 0 L 7.609375 -14.65625 L 12.675781 -14.65625 Z M 12.675781 -15.089844 "/></g></g></g><g fill="#1c2120" fill-opacity="1"><g transform="translate(138.820678, 261.53928)"><g><path d="M 12.890625 -15.089844 L 12.890625 -7.867188 L 3.988281 -7.867188 L 3.988281 -15.089844 L 2.070312 -15.089844 L 2.070312 0 L 3.988281 0 L 3.988281 -7.4375 L 12.890625 -7.4375 L 12.890625 0 L 14.808594 0 L 14.808594 -15.089844 Z M 12.890625 -15.089844 "/></g></g></g><g fill="#1c2120" fill-opacity="1"><g transform="translate(155.694979, 261.53928)"><g><path d="M 3.988281 -0.429688 L 3.988281 -7.4375 L 10.757812 -7.4375 L 10.757812 -7.867188 L 3.988281 -7.867188 L 3.988281 -14.65625 L 12.480469 -14.65625 L 12.480469 -15.089844 L 2.070312 -15.089844 L 2.070312 0 L 12.695312 0 L 12.695312 -0.429688 Z M 3.988281 -0.429688 "/></g></g></g><g fill="#1c2120" fill-opacity="1"><g transform="translate(169.250447, 261.53928)"><g/></g></g><g fill="#1c2120" fill-opacity="1"><g transform="translate(175.047623, 261.53928)"><g><path d="M 13.96875 -15.089844 L 13.96875 -2.585938 L 3.6875 -15.089844 L 2.070312 -15.089844 L 2.070312 0 L 2.585938 0 L 2.585938 -13.535156 L 13.753906 0 L 14.484375 0 L 14.484375 -15.089844 Z M 13.96875 -15.089844 "/></g></g></g><g fill="#1c2120" fill-opacity="1"><g transform="translate(191.577114, 261.53928)"><g><path d="M 8.921875 0.214844 C 13.429688 0.214844 16.792969 -3.125 16.792969 -7.542969 C 16.792969 -11.964844 13.429688 -15.304688 8.921875 -15.304688 C 4.441406 -15.304688 1.078125 -11.964844 1.078125 -7.542969 C 1.078125 -3.125 4.441406 0.214844 8.921875 0.214844 Z M 8.921875 -0.214844 C 5.410156 -0.214844 3.082031 -3.125 3.082031 -7.542969 C 3.082031 -11.964844 5.410156 -14.871094 8.921875 -14.871094 C 12.457031 -14.871094 14.785156 -11.964844 14.785156 -7.542969 C 14.785156 -3.125 12.457031 -0.214844 8.921875 -0.214844 Z M 8.921875 -0.214844 "/></g></g></g><g fill="#1c2120" fill-opacity="1"><g transform="translate(209.442759, 261.53928)"><g><path d="M 12.675781 -15.089844 L 0.582031 -15.089844 L 0.582031 -14.65625 L 5.691406 -14.65625 L 5.691406 0 L 7.609375 0 L 7.609375 -14.65625 L 12.675781 -14.65625 Z M 12.675781 -15.089844 "/></g></g></g><g fill="#1c2120" fill-opacity="1"><g transform="translate(222.696516, 261.53928)"><g><path d="M 3.988281 -0.429688 L 3.988281 -7.4375 L 10.757812 -7.4375 L 10.757812 -7.867188 L 3.988281 -7.867188 L 3.988281 -14.65625 L 12.480469 -14.65625 L 12.480469 -15.089844 L 2.070312 -15.089844 L 2.070312 0 L 12.695312 0 L 12.695312 -0.429688 Z M 3.988281 -0.429688 "/></g></g></g><g fill="#1c2120" fill-opacity="1"><g transform="translate(236.251984, 261.53928)"><g><path d="M 7.285156 -8.363281 C 5.152344 -9.203125 2.996094 -10.085938 2.996094 -11.941406 C 2.996094 -13.578125 4.675781 -14.828125 6.917969 -14.828125 C 8.644531 -14.828125 10.042969 -14.140625 10.625 -13.128906 L 10.539062 -13.128906 C 9.894531 -13.128906 9.417969 -12.675781 9.417969 -12.050781 C 9.417969 -11.425781 9.894531 -10.992188 10.539062 -10.992188 C 11.121094 -10.992188 11.574219 -11.425781 11.574219 -12.050781 C 11.574219 -13.902344 9.460938 -15.304688 6.726562 -15.304688 C 3.730469 -15.304688 1.507812 -13.621094 1.507812 -11.230469 C 1.507812 -8.621094 4.136719 -7.566406 6.316406 -6.683594 C 8.621094 -5.777344 10.625 -4.9375 10.625 -3.125 C 10.625 -1.445312 8.878906 -0.257812 6.421875 -0.257812 C 4.417969 -0.257812 2.757812 -1.035156 2.132812 -2.199219 L 2.285156 -2.199219 C 2.867188 -2.199219 3.320312 -2.652344 3.320312 -3.277344 C 3.320312 -3.902344 2.867188 -4.332031 2.285156 -4.332031 C 1.636719 -4.332031 1.164062 -3.902344 1.164062 -3.277344 C 1.164062 -1.292969 3.601562 0.214844 6.683594 0.214844 C 9.871094 0.214844 12.15625 -1.402344 12.15625 -3.921875 C 12.15625 -6.488281 9.785156 -7.414062 7.285156 -8.363281 Z M 7.285156 -8.363281 "/></g></g></g><g fill="#1c2120" fill-opacity="1"><g transform="translate(153.112664, 279.1646)"><g><path d="M 0.488281 0 L 6.042969 0 L 6.066406 -0.144531 L 6.273438 -1.65625 L 6.078125 -1.679688 C 5.917969 -0.683594 5.652344 -0.449219 4.921875 -0.449219 L 1.949219 -0.449219 L 1.949219 -3.859375 L 3.933594 -3.859375 C 4.664062 -3.859375 4.894531 -3.75 4.894531 -3.253906 L 5.101562 -3.253906 L 5.101562 -4.910156 L 4.894531 -4.910156 C 4.894531 -4.410156 4.664062 -4.300781 3.933594 -4.300781 L 1.949219 -4.300781 L 1.949219 -7.589844 L 4.800781 -7.589844 C 5.53125 -7.589844 5.796875 -7.355469 5.957031 -6.359375 L 6.152344 -6.382812 L 5.945312 -7.894531 L 5.917969 -8.039062 L 0.488281 -8.039062 L 0.488281 -7.832031 C 0.988281 -7.832031 1.097656 -7.589844 1.097656 -6.855469 L 1.097656 -1.179688 C 1.097656 -0.449219 0.988281 -0.207031 0.488281 -0.207031 Z M 0.488281 0 "/></g></g></g><g fill="#1c2120" fill-opacity="1"><g transform="translate(159.870228, 279.1646)"><g><path d="M 0.488281 0 L 2.558594 0 L 2.558594 -0.207031 C 2.058594 -0.207031 1.949219 -0.449219 1.949219 -1.179688 L 1.949219 -2.191406 C 1.949219 -3.859375 2.277344 -5.761719 3.910156 -5.761719 C 4.785156 -5.761719 4.980469 -5.054688 4.980469 -3.957031 L 4.980469 -1.179688 C 4.980469 -0.449219 4.882812 -0.207031 4.371094 -0.207031 L 4.371094 0 L 6.441406 0 L 6.441406 -0.207031 C 5.945312 -0.207031 5.835938 -0.449219 5.835938 -1.179688 L 5.835938 -2.191406 C 5.835938 -3.859375 6.164062 -5.761719 7.808594 -5.761719 C 8.671875 -5.761719 8.878906 -5.054688 8.878906 -3.957031 L 8.878906 -1.179688 C 8.878906 -0.449219 8.769531 -0.207031 8.269531 -0.207031 L 8.269531 0 L 10.339844 0 L 10.339844 -0.207031 C 9.839844 -0.207031 9.730469 -0.449219 9.730469 -1.179688 L 9.730469 -3.726562 C 9.730469 -5.285156 9.292969 -6.210938 8.039062 -6.210938 C 6.785156 -6.210938 6.210938 -5.382812 5.90625 -4.335938 L 5.808594 -4.335938 C 5.710938 -5.515625 5.226562 -6.210938 4.140625 -6.210938 C 2.886719 -6.210938 2.3125 -5.382812 2.023438 -4.335938 L 1.949219 -4.335938 L 1.949219 -5.382812 C 1.949219 -6.003906 1.691406 -6.078125 1.242188 -6.089844 L 0.488281 -6.089844 L 0.488281 -5.882812 C 0.988281 -5.882812 1.097656 -5.640625 1.097656 -4.910156 L 1.097656 -1.179688 C 1.097656 -0.449219 0.988281 -0.207031 0.488281 -0.207031 Z M 0.488281 0 "/></g></g></g><g fill="#1c2120" fill-opacity="1"><g transform="translate(170.694507, 279.1646)"><g><path d="M 0.488281 0 L 2.558594 0 L 2.558594 -0.207031 C 2.058594 -0.207031 1.949219 -0.449219 1.949219 -1.179688 L 1.949219 -2.191406 C 1.949219 -3.859375 2.753906 -5.761719 4.140625 -5.761719 C 5.007812 -5.761719 5.175781 -5.117188 4.628906 -3.777344 L 5.480469 -3.53125 C 6.140625 -5.347656 5.613281 -6.210938 4.371094 -6.210938 C 2.972656 -6.210938 2.265625 -5.117188 2.023438 -4.25 L 1.949219 -4.25 L 1.949219 -5.382812 C 1.949219 -6.003906 1.691406 -6.078125 1.242188 -6.089844 L 0.488281 -6.089844 L 0.488281 -5.882812 C 0.988281 -5.882812 1.097656 -5.640625 1.097656 -4.910156 L 1.097656 -1.179688 C 1.097656 -0.449219 0.988281 -0.207031 0.488281 -0.207031 Z M 0.488281 0 "/></g></g></g><g fill="#1c2120" fill-opacity="1"><g transform="translate(176.818938, 279.1646)"><g><path d="M 3.53125 0.121094 C 5.226562 0.121094 6.015625 -1.070312 5.894531 -2.242188 L 5.042969 -1.972656 C 5.175781 -0.753906 4.25 -0.328125 3.433594 -0.328125 C 2.277344 -0.328125 1.351562 -1.265625 1.339844 -2.8125 L 1.339844 -2.996094 C 3.082031 -2.472656 5.859375 -2.632812 5.859375 -4.519531 C 5.859375 -5.515625 5.066406 -6.210938 3.640625 -6.210938 C 1.875 -6.210938 0.488281 -5.03125 0.488281 -2.960938 C 0.488281 -1.253906 1.402344 0.121094 3.53125 0.121094 Z M 1.375 -3.445312 C 1.523438 -4.847656 2.277344 -5.761719 3.582031 -5.761719 C 4.605469 -5.761719 5.007812 -5.214844 5.007812 -4.519531 C 5.007812 -3.496094 3.738281 -2.824219 1.375 -3.445312 Z M 1.375 -3.445312 "/></g></g></g><g fill="#1c2120" fill-opacity="1"><g transform="translate(183.21123, 279.1646)"><g/></g></g><g fill="#1c2120" fill-opacity="1"><g transform="translate(186.023844, 279.1646)"><g><path d="M 0.488281 0 L 2.558594 0 L 2.558594 -0.207031 C 2.058594 -0.207031 1.949219 -0.449219 1.949219 -1.179688 L 1.949219 -3.605469 L 2.667969 -4.25 C 4.445312 -4.238281 4.59375 -3.082031 5.164062 -1.730469 C 5.738281 -0.328125 6.222656 0 7.722656 0 L 7.722656 -0.207031 C 6.832031 -0.207031 6.480469 -0.804688 5.945312 -2.058594 C 5.261719 -3.605469 4.859375 -4.675781 3.226562 -4.675781 L 3.226562 -4.738281 L 6.003906 -7.257812 C 6.554688 -7.746094 7.003906 -7.832031 7.589844 -7.832031 L 7.589844 -8.039062 L 4.847656 -8.039062 L 4.847656 -7.832031 C 5.945312 -7.832031 5.871094 -7.746094 5.324219 -7.257812 L 1.949219 -4.203125 L 1.949219 -6.855469 C 1.949219 -7.589844 2.058594 -7.832031 2.558594 -7.832031 L 2.558594 -8.039062 L 0.488281 -8.039062 L 0.488281 -7.832031 C 0.988281 -7.832031 1.097656 -7.589844 1.097656 -6.855469 L 1.097656 -1.179688 C 1.097656 -0.449219 0.988281 -0.207031 0.488281 -0.207031 Z M 0.488281 0 "/></g></g></g><g fill="#1c2120" fill-opacity="1"><g transform="translate(193.865061, 279.1646)"><g><path d="M 3.070312 0.121094 C 4.433594 0.121094 5.101562 -0.707031 5.394531 -1.753906 L 5.46875 -1.753906 L 5.46875 -0.707031 C 5.46875 -0.0859375 5.722656 -0.0117188 6.175781 0 L 6.929688 0 L 6.929688 -0.207031 C 6.429688 -0.207031 6.320312 -0.449219 6.320312 -1.179688 L 6.320312 -4.910156 C 6.320312 -5.640625 6.429688 -5.882812 6.929688 -5.882812 L 6.929688 -6.089844 L 4.859375 -6.089844 L 4.859375 -5.882812 C 5.371094 -5.882812 5.46875 -5.640625 5.46875 -4.910156 L 5.46875 -3.898438 C 5.46875 -2.230469 5.054688 -0.328125 3.253906 -0.328125 C 2.253906 -0.328125 1.949219 -1.070312 1.949219 -2.15625 L 1.949219 -4.910156 C 1.949219 -5.640625 2.058594 -5.882812 2.558594 -5.882812 L 2.558594 -6.089844 L 0.488281 -6.089844 L 0.488281 -5.882812 C 0.988281 -5.882812 1.097656 -5.640625 1.097656 -4.910156 L 1.097656 -2.386719 C 1.097656 -0.804688 1.679688 0.121094 3.070312 0.121094 Z M 3.070312 0.121094 "/></g></g></g><g fill="#1c2120" fill-opacity="1"><g transform="translate(201.280122, 279.1646)"><g><path d="M 0.488281 0 L 5.894531 0 L 5.917969 -0.144531 L 6.125 -1.65625 L 5.933594 -1.679688 C 5.773438 -0.683594 5.503906 -0.449219 4.773438 -0.449219 L 1.484375 -0.449219 L 6.003906 -5.445312 L 6.003906 -6.089844 L 0.78125 -6.089844 L 0.753906 -5.945312 L 0.546875 -4.433594 L 0.742188 -4.410156 C 0.902344 -5.40625 1.167969 -5.640625 1.898438 -5.640625 L 5.007812 -5.640625 L 0.488281 -0.644531 Z M 0.488281 0 "/></g></g></g><g fill="#1c2120" fill-opacity="1"><g transform="translate(207.89158, 279.1646)"><g><path d="M 3.53125 0.121094 C 5.226562 0.121094 6.015625 -1.070312 5.894531 -2.242188 L 5.042969 -1.972656 C 5.175781 -0.753906 4.25 -0.328125 3.433594 -0.328125 C 2.277344 -0.328125 1.351562 -1.265625 1.339844 -2.8125 L 1.339844 -2.996094 C 3.082031 -2.472656 5.859375 -2.632812 5.859375 -4.519531 C 5.859375 -5.515625 5.066406 -6.210938 3.640625 -6.210938 C 1.875 -6.210938 0.488281 -5.03125 0.488281 -2.960938 C 0.488281 -1.253906 1.402344 0.121094 3.53125 0.121094 Z M 1.375 -3.445312 C 1.523438 -4.847656 2.277344 -5.761719 3.582031 -5.761719 C 4.605469 -5.761719 5.007812 -5.214844 5.007812 -4.519531 C 5.007812 -3.496094 3.738281 -2.824219 1.375 -3.445312 Z M 1.375 -3.445312 "/></g></g></g><g fill="#1c2120" fill-opacity="1"><g transform="translate(214.283871, 279.1646)"><g><path d="M 2.300781 2.4375 C 3.363281 2.4375 3.761719 1.644531 4.203125 0.5 L 6.320312 -4.992188 C 6.589844 -5.675781 6.882812 -5.882812 7.480469 -5.882812 L 7.480469 -6.089844 L 5.054688 -6.089844 L 5.054688 -5.882812 C 6.054688 -5.882812 6.113281 -5.675781 5.847656 -4.992188 L 4.03125 -0.328125 L 2.203125 -4.992188 C 1.925781 -5.675781 1.984375 -5.882812 2.984375 -5.882812 L 2.984375 -6.089844 L 0.121094 -6.089844 L 0.121094 -5.882812 C 0.730469 -5.882812 1.011719 -5.675781 1.292969 -4.992188 L 3.253906 0 L 3.910156 0 L 3.714844 0.5 C 3.347656 1.449219 3.082031 1.984375 2.421875 1.984375 C 1.839844 1.984375 1.414062 1.546875 1.972656 0.667969 L 1.121094 0.425781 C 0.621094 1.582031 1.132812 2.4375 2.300781 2.4375 Z M 2.300781 2.4375 "/></g></g></g></svg>