<svg xmlns="http://www.w3.org/2000/svg" xmlns:xlink="http://www.w3.org/1999/xlink" width="400" zoomAndPan="magnify" viewBox="0 0 300 149.999998" height="200" preserveAspectRatio="xMidYMid meet" version="1.0"><defs><g/><clipPath id="d80cae9e01"><path d="M 30 41 L 89 41 L 89 118 L 30 118 Z M 30 41 " clip-rule="nonzero"/></clipPath><clipPath id="8d9acfa8c0"><path d="M 30.761719 51.335938 L 45.980469 41.5 L 88.824219 107.773438 L 73.605469 117.613281 Z M 30.761719 51.335938 " clip-rule="nonzero"/></clipPath><clipPath id="110e449101"><path d="M 30.761719 51.335938 L 45.65625 41.707031 L 88.480469 107.957031 L 73.585938 117.585938 Z M 30.761719 51.335938 " clip-rule="nonzero"/></clipPath></defs><rect x="-30" width="360" fill="#ffffff" y="-15" height="179.999997" fill-opacity="1"/><rect x="-30" width="360" fill="#ffffff" y="-15" height="179.999997" fill-opacity="1"/><rect x="-30" width="360" fill="#ffffff" y="-15" height="179.999997" fill-opacity="1"/><g fill="#474646" fill-opacity="1"><g transform="translate(116.669428, 44.831371)"><g><path d="M 23.210938 -30.195312 C 18.945312 -30.195312 14.921875 -27.945312 12.847656 -24.632812 L 12.847656 -43.222656 L 3.789062 -41.683594 L 3.789062 0 L 12.847656 0 L 12.847656 -22.261719 C 14.152344 -25.339844 16.875 -27.414062 19.65625 -27.414062 C 22.382812 -27.414062 24.277344 -25.28125 24.277344 -22.5 L 24.277344 0 L 33.335938 0 L 33.335938 -20.425781 C 33.335938 -25.992188 29.132812 -30.195312 23.210938 -30.195312 Z M 23.210938 -30.195312 "/></g></g></g><g fill="#474646" fill-opacity="1"><g transform="translate(153.311241, 44.831371)"><g><path d="M 27.945312 -11.664062 C 25.460938 -11.664062 23.625 -9.828125 23.625 -7.519531 C 23.625 -5.09375 25.460938 -3.316406 27.828125 -3.316406 L 28.066406 -3.316406 C 26.585938 -2.011719 24.277344 -1.242188 21.671875 -1.242188 C 15.097656 -1.242188 11.308594 -5.980469 11.308594 -15.808594 L 32.445312 -15.808594 C 32.445312 -23.980469 26.289062 -30.195312 17.761719 -30.195312 C 9 -30.195312 2.011719 -23.683594 2.011719 -14.863281 C 2.011719 -6.039062 9.058594 0.59375 19.007812 0.59375 C 26.171875 0.59375 32.03125 -2.902344 32.03125 -7.519531 C 32.03125 -9.828125 30.257812 -11.664062 27.945312 -11.664062 Z M 17.820312 -29.011719 C 21.433594 -29.011719 23.742188 -24.570312 23.921875 -16.992188 L 11.308594 -16.992188 C 11.546875 -23.980469 13.972656 -29.011719 17.820312 -29.011719 Z M 17.820312 -29.011719 "/></g></g></g><g fill="#474646" fill-opacity="1"><g transform="translate(187.693641, 44.831371)"><g/></g></g><g fill="#1c2120" fill-opacity="1"><g transform="translate(96.685638, 140.360906)"><g><path d="M 30.050781 0.980469 C 45.222656 0.980469 56.773438 -9.984375 56.773438 -24.472656 C 56.773438 -38.960938 45.222656 -49.921875 30.050781 -49.921875 C 14.78125 -49.921875 3.328125 -38.960938 3.328125 -24.472656 C 3.328125 -9.984375 14.78125 0.980469 30.050781 0.980469 Z M 30.050781 -0.980469 C 23.003906 -0.980469 18.695312 -9.789062 18.695312 -24.472656 C 18.695312 -39.15625 23.003906 -47.964844 30.050781 -47.964844 C 37 -47.964844 41.40625 -39.15625 41.40625 -24.472656 C 41.40625 -9.789062 37 -0.980469 30.050781 -0.980469 Z M 30.050781 -0.980469 "/></g></g></g><g fill="#1c2120" fill-opacity="1"><g transform="translate(156.683546, 140.360906)"><g><path d="M 35.632812 -7.441406 C 34.652344 -4.699219 31.714844 -2.644531 28.777344 -2.644531 C 25.15625 -2.644531 22.515625 -5.675781 22.515625 -9.789062 L 22.515625 -46.988281 L 35.042969 -46.988281 L 35.042969 -48.945312 L 22.515625 -48.945312 L 22.515625 -62.84375 L 7.539062 -59.613281 L 7.539062 -48.945312 L 1.664062 -48.945312 L 1.664062 -46.988281 L 7.539062 -46.988281 L 7.539062 -12.234375 C 7.539062 -4.699219 14.195312 0.980469 23.199219 0.980469 C 29.953125 0.980469 36.21875 -2.25 37.199219 -6.558594 Z M 35.632812 -7.441406 "/></g></g></g><g fill="#1c2120" fill-opacity="1"><g transform="translate(194.463624, 140.360906)"><g><path d="M 46.203125 -19.285156 C 42.09375 -19.285156 39.058594 -16.25 39.058594 -12.433594 C 39.058594 -8.417969 42.09375 -5.480469 46.007812 -5.480469 L 46.398438 -5.480469 C 43.953125 -3.328125 40.132812 -2.054688 35.828125 -2.054688 C 24.960938 -2.054688 18.695312 -9.886719 18.695312 -26.136719 L 53.644531 -26.136719 C 53.644531 -39.644531 43.460938 -49.921875 29.367188 -49.921875 C 14.878906 -49.921875 3.328125 -39.15625 3.328125 -24.570312 C 3.328125 -9.984375 14.976562 0.980469 31.421875 0.980469 C 43.265625 0.980469 52.957031 -4.796875 52.957031 -12.433594 C 52.957031 -16.25 50.019531 -19.285156 46.203125 -19.285156 Z M 29.464844 -47.964844 C 35.4375 -47.964844 39.253906 -40.625 39.546875 -28.09375 L 18.695312 -28.09375 C 19.089844 -39.644531 23.101562 -47.964844 29.464844 -47.964844 Z M 29.464844 -47.964844 "/></g></g></g><g fill="#1c2120" fill-opacity="1"><g transform="translate(251.329504, 140.360906)"><g><path d="M 27.113281 -31.128906 C 19.675781 -34.359375 14.683594 -36.511719 14.683594 -40.820312 C 14.683594 -45.125 19.382812 -47.769531 26.234375 -47.769531 C 29.953125 -47.769531 33.183594 -47.085938 35.632812 -45.8125 C 32.988281 -45.222656 31.226562 -42.972656 31.226562 -40.230469 C 31.226562 -36.902344 33.769531 -34.457031 37.199219 -34.457031 C 40.429688 -34.457031 42.777344 -36.902344 42.777344 -40.230469 C 42.777344 -45.714844 34.847656 -49.921875 24.472656 -49.921875 C 12.234375 -49.921875 4.011719 -44.148438 4.011719 -35.140625 C 4.011719 -24.765625 15.269531 -20.753906 21.828125 -17.914062 C 29.464844 -14.390625 34.261719 -12.136719 34.261719 -8.027344 C 34.261719 -3.71875 29.464844 -1.175781 22.320312 -1.175781 C 17.425781 -1.175781 13.214844 -2.25 10.375 -4.109375 C 13.019531 -4.503906 15.074219 -6.753906 15.074219 -9.789062 C 15.074219 -13.117188 12.628906 -15.5625 9.496094 -15.5625 C 5.972656 -15.5625 3.523438 -13.117188 3.523438 -9.789062 C 3.523438 -3.71875 12.53125 0.980469 24.082031 0.980469 C 37.296875 0.980469 44.929688 -5.1875 44.929688 -14.097656 C 44.929688 -24.179688 34.652344 -27.898438 27.113281 -31.128906 Z M 27.113281 -31.128906 "/></g></g></g><g fill="#474646" fill-opacity="1"><g transform="translate(-3.872117, 146.660596)"><g><path d="M 120.21875 -143.78125 C 119.269531 -134.164062 118.796875 -125.5 118.796875 -117.78125 C 118.796875 -111.007812 119 -105.460938 119.40625 -101.140625 L 114.734375 -101.140625 C 113.648438 -111.554688 112.296875 -119.300781 110.671875 -124.375 C 109.046875 -129.457031 106.203125 -133.179688 102.140625 -135.546875 C 98.085938 -137.921875 91.863281 -139.109375 83.46875 -139.109375 L 72.5 -139.109375 L 72.5 -23.5625 C 72.5 -17.875 73.039062 -13.742188 74.125 -11.171875 C 75.207031 -8.597656 77.101562 -6.835938 79.8125 -5.890625 C 82.519531 -4.941406 86.921875 -4.332031 93.015625 -4.0625 L 93.015625 0 C 85.972656 -0.40625 76.019531 -0.609375 63.15625 -0.609375 C 49.613281 -0.609375 39.597656 -0.40625 33.109375 0 L 33.109375 -4.0625 C 39.191406 -4.332031 43.585938 -4.941406 46.296875 -5.890625 C 49.003906 -6.835938 50.898438 -8.597656 51.984375 -11.171875 C 53.066406 -13.742188 53.609375 -17.875 53.609375 -23.5625 L 53.609375 -139.109375 L 42.640625 -139.109375 C 34.253906 -139.109375 28.03125 -137.921875 23.96875 -135.546875 C 19.90625 -133.179688 17.0625 -129.457031 15.4375 -124.375 C 13.8125 -119.300781 12.457031 -111.554688 11.375 -101.140625 L 6.703125 -101.140625 C 7.109375 -105.460938 7.3125 -111.007812 7.3125 -117.78125 C 7.3125 -125.5 6.835938 -134.164062 5.890625 -143.78125 C 17.128906 -143.375 36.21875 -143.171875 63.15625 -143.171875 C 89.957031 -143.171875 108.976562 -143.375 120.21875 -143.78125 Z M 120.21875 -143.78125 "/></g></g></g><g clip-path="url(#d80cae9e01)"><g clip-path="url(#8d9acfa8c0)"><g clip-path="url(#110e449101)"><path fill="#ffffff" d="M 30.761719 51.335938 L 45.488281 41.816406 L 88.332031 108.089844 L 73.605469 117.613281 Z M 30.761719 51.335938 " fill-opacity="1" fill-rule="nonzero"/></g></g></g><g fill="#1c2120" fill-opacity="1"><g transform="translate(7.902952, 137.936344)"><g><path d="M 97.90625 -100.53125 C 94.5 -100.332031 91.96875 -99.816406 90.3125 -98.984375 C 88.65625 -98.160156 87.53125 -96.800781 86.9375 -94.90625 C 86.351562 -93.007812 86.0625 -90.207031 86.0625 -86.5 L 86.0625 0.734375 L 82.703125 0.734375 L 21.328125 -94.109375 L 21.328125 -16.953125 C 21.328125 -13.148438 21.644531 -10.320312 22.28125 -8.46875 C 22.914062 -6.625 24.15625 -5.285156 26 -4.453125 C 27.851562 -3.628906 30.726562 -3.117188 34.625 -2.921875 L 34.625 0 C 31.125 -0.289062 26.160156 -0.4375 19.734375 -0.4375 C 13.878906 -0.4375 9.347656 -0.289062 6.140625 0 L 6.140625 -2.921875 C 9.546875 -3.117188 12.078125 -3.628906 13.734375 -4.453125 C 15.390625 -5.285156 16.507812 -6.648438 17.09375 -8.546875 C 17.675781 -10.441406 17.96875 -13.242188 17.96875 -16.953125 L 17.96875 -87.96875 C 17.96875 -91.664062 17.675781 -94.34375 17.09375 -96 C 16.507812 -97.65625 15.410156 -98.773438 13.796875 -99.359375 C 12.191406 -99.941406 9.640625 -100.332031 6.140625 -100.53125 L 6.140625 -103.453125 C 9.347656 -103.160156 13.878906 -103.015625 19.734375 -103.015625 C 24.109375 -103.015625 27.90625 -103.160156 31.125 -103.453125 L 82.703125 -23.96875 L 82.703125 -86.5 C 82.703125 -90.300781 82.382812 -93.125 81.75 -94.96875 C 81.125 -96.820312 79.882812 -98.160156 78.03125 -98.984375 C 76.175781 -99.816406 73.300781 -100.332031 69.40625 -100.53125 L 69.40625 -103.453125 C 72.914062 -103.160156 77.882812 -103.015625 84.3125 -103.015625 C 90.15625 -103.015625 94.6875 -103.160156 97.90625 -103.453125 Z M 97.90625 -100.53125 "/></g></g></g></svg>